# xmcd
#
# Track frame offsets:
#	150
#	31575
#	54750
#	79850
#	103895
#	123180
#	149620
#	164805
#	181500
#	216470
#	234445
#	255790
#
# Disc length: 3630 seconds
#
# Revision: 1
# Processed by: cddbd v1.5.1PL0 Copyright (c) Steve Scherf et al.
# Submitted via: EasyCDDAExtractor 8.0.2.1
#
DISCID=990e2c0c
DTITLE=Ozzy Osbourne - Nassau Coliseum Uniondale 14-08-81
DYEAR=1981
DGENRE=Hard Rock
TTITLE0=Intro - I Don't Know
TTITLE1=Crazy Train
TTITLE2=Believer
TTITLE3=Mr Crowley
TTITLE4=Flying High Again
TTITLE5=Revelation (Mother Earth)
TTITLE6=Steal Away (The Night)
TTITLE7=Drum Solo
TTITLE8=Suicide Solution
TTITLE9=Iron Man
TTITLE10=Children Of The Grave
TTITLE11=Paranoid
EXTD=
EXTT0=
EXTT1=
EXTT2=
EXTT3=
EXTT4=
EXTT5=
EXTT6=
EXTT7=
EXTT8=
EXTT9=
EXTT10=
EXTT11=
PLAYORDER=
